<svg width="32" height="32" viewBox="0 0 32 32" fill="none" xmlns="http://www.w3.org/2000/svg">
<g id="u:check-circle">
<path id="Vector" d="M19.6267 11.72L13.9067 17.4533L11.7067 15.2533C11.5871 15.1138 11.44 15.0004 11.2746 14.9204C11.1092 14.8403 10.929 14.7954 10.7454 14.7883C10.5618 14.7812 10.3787 14.8121 10.2076 14.8792C10.0365 14.9462 9.88107 15.0479 9.75113 15.1778C9.62119 15.3077 9.51951 15.4631 9.45248 15.6342C9.38545 15.8053 9.35451 15.9885 9.3616 16.1721C9.36869 16.3557 9.41366 16.5359 9.4937 16.7013C9.57373 16.8667 9.68709 17.0138 9.82666 17.1333L12.96 20.28C13.0846 20.4036 13.2323 20.5013 13.3948 20.5677C13.5572 20.6341 13.7312 20.6677 13.9067 20.6667C14.2564 20.6652 14.5916 20.5263 14.84 20.28L21.5067 13.6133C21.6316 13.4894 21.7308 13.3419 21.7985 13.1794C21.8662 13.017 21.9011 12.8427 21.9011 12.6667C21.9011 12.4907 21.8662 12.3164 21.7985 12.1539C21.7308 11.9914 21.6316 11.844 21.5067 11.72C21.2568 11.4717 20.9189 11.3323 20.5667 11.3323C20.2144 11.3323 19.8765 11.4717 19.6267 11.72ZM16 2.66667C13.3629 2.66667 10.785 3.44866 8.59239 4.91374C6.39974 6.37883 4.69077 8.46121 3.6816 10.8976C2.67243 13.3339 2.40839 16.0148 2.92286 18.6012C3.43733 21.1876 4.70721 23.5634 6.57191 25.4281C8.43661 27.2928 10.8124 28.5627 13.3988 29.0771C15.9852 29.5916 18.6661 29.3276 21.1024 28.3184C23.5388 27.3092 25.6212 25.6003 27.0863 23.4076C28.5513 21.215 29.3333 18.6371 29.3333 16C29.3333 14.249 28.9885 12.5152 28.3184 10.8976C27.6483 9.27988 26.6662 7.81003 25.4281 6.57191C24.19 5.3338 22.7201 4.35167 21.1024 3.68161C19.4848 3.01155 17.751 2.66667 16 2.66667ZM16 26.6667C13.8903 26.6667 11.828 26.0411 10.0739 24.869C8.31979 23.6969 6.95262 22.031 6.14528 20.082C5.33795 18.1329 5.12671 15.9882 5.53829 13.919C5.94986 11.8499 6.96576 9.94929 8.45752 8.45753C9.94928 6.96577 11.8499 5.94987 13.919 5.5383C15.9882 5.12672 18.1329 5.33796 20.082 6.14529C22.031 6.95263 23.6969 8.3198 24.869 10.0739C26.0411 11.828 26.6667 13.8903 26.6667 16C26.6667 18.829 25.5429 21.5421 23.5425 23.5425C21.5421 25.5429 18.829 26.6667 16 26.6667Z" fill="#0F552C"/>
</g>
</svg>
